  0
SECTION
  2
HEADER
  9
$ACADVER
  1
AC1009
  9
$INSBASE
 10
0.0
 20
0.0
 30
0.0
  9
$EXTMIN
 10
1021.032441904648
 20
782.4585876520996
 30
-0.0000000000001212
  9
$EXTMAX
 10
3768.4746090843182
 20
2068.053076140448
 30
0.0
  9
$LIMMIN
 10
0.0
 20
0.0
  9
$LIMMAX
 10
420.0
 20
297.0
  9
$ORTHOMODE
 70
     0
  9
$REGENMODE
 70
     1
  9
$FILLMODE
 70
     1
  9
$QTEXTMODE
 70
     0
  9
$MIRRTEXT
 70
     0
  9
$DRAGMODE
 70
     2
  9
$LTSCALE
 40
1.0
  9
$OSMODE
 70
   165
  9
$ATTMODE
 70
     1
  9
$TEXTSIZE
 40
2.5
  9
$TRACEWID
 40
1.0
  9
$TEXTSTYLE
  7
STANDARD
  9
$CLAYER
  8
0
  9
$CELTYPE
  6
BYLAYER
  9
$CECOLOR
 62
   256
  9
$DIMSCALE
 40
1.0
  9
$DIMASZ
 40
2.5
  9
$DIMEXO
 40
0.625
  9
$DIMDLI
 40
3.75
  9
$DIMRND
 40
0.0
  9
$DIMDLE
 40
0.0
  9
$DIMEXE
 40
1.25
  9
$DIMTP
 40
0.0
  9
$DIMTM
 40
0.0
  9
$DIMTXT
 40
2.5
  9
$DIMCEN
 40
2.5
  9
$DIMTSZ
 40
0.0
  9
$DIMTOL
 70
     0
  9
$DIMLIM
 70
     0
  9
$DIMTIH
 70
     0
  9
$DIMTOH
 70
     0
  9
$DIMSE1
 70
     0
  9
$DIMSE2
 70
     0
  9
$DIMTAD
 70
     1
  9
$DIMZIN
 70
     8
  9
$DIMBLK
  1

  9
$DIMASO
 70
     1
  9
$DIMSHO
 70
     1
  9
$DIMPOST
  1

  9
$DIMAPOST
  1

  9
$DIMALT
 70
     0
  9
$DIMALTD
 70
     3
  9
$DIMALTF
 40
0.03937007874016
  9
$DIMLFAC
 40
1.0
  9
$DIMTOFL
 70
     1
  9
$DIMTVP
 40
0.0
  9
$DIMTIX
 70
     0
  9
$DIMSOXD
 70
     0
  9
$DIMSAH
 70
     0
  9
$DIMBLK1
  1

  9
$DIMBLK2
  1

  9
$DIMSTYLE
  2
ISO-25
  9
$DIMCLRD
 70
     0
  9
$DIMCLRE
 70
     0
  9
$DIMCLRT
 70
     0
  9
$DIMTFAC
 40
1.0
  9
$DIMGAP
 40
0.625
  9
$LUNITS
 70
     2
  9
$LUPREC
 70
     4
  9
$SKETCHINC
 40
1.0
  9
$FILLETRAD
 40
0.0
  9
$AUNITS
 70
     0
  9
$AUPREC
 70
     0
  9
$MENU
  1
.
  9
$ELEVATION
 40
0.0
  9
$PELEVATION
 40
0.0
  9
$THICKNESS
 40
0.0
  9
$LIMCHECK
 70
     0
  9
$BLIPMODE
 70
     0
  9
$CHAMFERA
 40
0.0
  9
$CHAMFERB
 40
0.0
  9
$SKPOLY
 70
     0
  9
$TDCREATE
 40
2459115.494744549
  9
$TDUPDATE
 40
2459115.7504089582
  9
$TDINDWG
 40
0.2520995139
  9
$TDUSRTIMER
 40
0.252098588
  9
$USRTIMER
 70
     1
  9
$ANGBASE
 50
0.0
  9
$ANGDIR
 70
     0
  9
$PDMODE
 70
     0
  9
$PDSIZE
 40
0.0
  9
$PLINEWID
 40
0.0
  9
$COORDS
 70
     0
  9
$SPLFRAME
 70
     0
  9
$SPLINETYPE
 70
     6
  9
$SPLINESEGS
 70
     8
  9
$ATTDIA
 70
     1
  9
$ATTREQ
 70
     1
  9
$HANDLING
 70
     1
  9
$HANDSEED
  5
1392
  9
$SURFTAB1
 70
     6
  9
$SURFTAB2
 70
     6
  9
$SURFTYPE
 70
     6
  9
$SURFU
 70
     6
  9
$SURFV
 70
     6
  9
$UCSNAME
  2

  9
$UCSORG
 10
0.0
 20
0.0
 30
0.0
  9
$UCSXDIR
 10
1.0
 20
0.0
 30
0.0
  9
$UCSYDIR
 10
0.0
 20
1.0
 30
0.0
  9
$PUCSNAME
  2

  9
$PUCSORG
 10
0.0
 20
0.0
 30
0.0
  9
$PUCSXDIR
 10
1.0
 20
0.0
 30
0.0
  9
$PUCSYDIR
 10
0.0
 20
1.0
 30
0.0
  9
$USERI1
 70
     0
  9
$USERI2
 70
     0
  9
$USERI3
 70
     0
  9
$USERI4
 70
     0
  9
$USERI5
 70
     0
  9
$USERR1
 40
0.0
  9
$USERR2
 40
0.0
  9
$USERR3
 40
0.0
  9
$USERR4
 40
0.0
  9
$USERR5
 40
0.0
  9
$WORLDVIEW
 70
     1
  9
$SHADEDGE
 70
     3
  9
$SHADEDIF
 70
    70
  9
$TILEMODE
 70
     1
  9
$MAXACTVP
 70
    64
  9
$PLIMCHECK
 70
     0
  9
$PEXTMIN
 10
0.0
 20
0.0
 30
0.0
  9
$PEXTMAX
 10
0.0
 20
0.0
 30
0.0
  9
$PLIMMIN
 10
0.0
 20
0.0
  9
$PLIMMAX
 10
12.0
 20
9.0
  9
$UNITMODE
 70
     0
  9
$VISRETAIN
 70
     1
  9
$PLINEGEN
 70
     0
  9
$PSLTSCALE
 70
     1
  0
ENDSEC
  0
SECTION
  2
TABLES
  0
TABLE
  2
VPORT
 70
     1
  0
VPORT
  2
*ACTIVE
 70
     0
 10
0.0
 20
0.0
 11
1.0
 21
1.0
 12
3052.9735649322838
 22
1473.933052479166
 13
0.0
 23
0.0
 14
10.0
 24
10.0
 15
10.0
 25
10.0
 16
0.0
 26
0.0
 36
1.0
 17
0.0
 27
0.0
 37
0.0
 40
2434.3865436483761
 41
2.8775137111517362
 42
50.0
 43
0.0
 44
0.0
 50
0.0
 51
0.0
 71
     0
 72
  1000
 73
     1
 74
     3
 75
     0
 76
     1
 77
     0
 78
     0
  0
ENDTAB
  0
TABLE
  2
LTYPE
 70
     2
  0
LTYPE
  2
CONTINUOUS
 70
     0
  3
Solid line
 72
    65
 73
     0
 40
0.0
  0
ENDTAB
  0
TABLE
  2
LAYER
 70
     5
  0
LAYER
  2
0
 70
     0
 62
     7
  6
CONTINUOUS
  0
LAYER
  2
_____$_YB02
 70
     0
 62
     7
  6
CONTINUOUS
  0
LAYER
  2
_____$_YB01
 70
     0
 62
     7
  6
CONTINUOUS
  0
LAYER
  2
YWQB1A___PJ
 70
     0
 62
     7
  6
CONTINUOUS
  0
LAYER
  2
BOM图层
 70
     0
 62
     7
  6
CONTINUOUS
  0
ENDTAB
  0
TABLE
  2
STYLE
 70
     4
  0
STYLE
  2
STANDARD
 70
     0
 40
0.0
 41
1.0
 50
0.0
 71
     0
 42
2.5
  3
txt
  4

  0
STYLE
  2
ANNOTATIVE
 70
     0
 40
0.0
 41
1.0
 50
0.0
 71
     0
 42
2.5
  3
txt
  4

  0
STYLE
  2
图签-黑体
 70
     0
 40
0.0
 41
1.0
 50
0.0
 71
     0
 42
0.2
  3
txt
  4

  0
STYLE
  2
图签-样式_2
 70
     0
 40
0.0
 41
1.0
 50
0.0
 71
     0
 42
3.0
  3
txt
  4

  0
ENDTAB
  0
TABLE
  2
VIEW
 70
     0
  0
ENDTAB
  0
TABLE
  2
UCS
 70
     0
  0
ENDTAB
  0
TABLE
  2
APPID
 70
    11
  0
APPID
  2
ACAD
 70
     0
  0
APPID
  2
ACADANNOTATIVE
 70
     0
  0
APPID
  2
ACAD_PSEXT
 70
     0
  0
APPID
  2
ACADANNOPO
 70
     0
  0
APPID
  2
ACAD_DSTYLE_DIMJAG
 70
     0
  0
APPID
  2
ACAD_DSTYLE_DIMTALN
 70
     0
  0
APPID
  2
ACAD_MLEADERVER
 70
     0
  0
APPID
  2
ACAD_NAV_VCDISPLAY
 70
     0
  0
APPID
  2
ACAECLAYERSTANDARD
 70
     0
  0
APPID
  2
ACCMTRANSPARENCY
 70
     0
  0
APPID
  2
ACAD_EXEMPT_FROM_CAD_STANDARDS
 70
     0
  0
ENDTAB
  0
TABLE
  2
DIMSTYLE
 70
     4
  0
DIMSTYLE
  2
STANDARD
 70
     0
  3

  4

  5

  6

  7

 40
1.0
 41
0.18
 42
0.0625
 43
0.38
 44
0.18
 45
0.0
 46
0.0
 47
0.0
 48
0.0
140
0.18
141
0.09
142
0.0
143
25.399999999999999
144
1.0
145
0.0
146
1.0
147
0.09
 71
     0
 72
     0
 73
     1
 74
     1
 75
     0
 76
     0
 77
     0
 78
     0
170
     0
171
     2
172
     0
173
     0
174
     0
175
     0
176
     0
177
     0
178
     0
  0
DIMSTYLE
  2
ANNOTATIVE
 70
     0
  3

  4

  5

  6

  7

 40
0.0
 41
2.5
 42
0.625
 43
3.75
 44
1.25
 45
0.0
 46
0.0
 47
0.0
 48
0.0
140
2.5
141
2.5
142
0.0
143
0.03937007874016
144
1.0
145
0.0
146
1.0
147
0.625
 71
     0
 72
     0
 73
     0
 74
     0
 75
     0
 76
     0
 77
     1
 78
     8
170
     0
171
     3
172
     1
173
     0
174
     0
175
     0
176
     0
177
     0
178
     0
  0
DIMSTYLE
  2
ISO-25
 70
     0
  3

  4

  5

  6

  7

 40
1.0
 41
2.5
 42
0.625
 43
3.75
 44
1.25
 45
0.0
 46
0.0
 47
0.0
 48
0.0
140
2.5
141
2.5
142
0.0
143
0.03937007874016
144
1.0
145
0.0
146
1.0
147
0.625
 71
     0
 72
     0
 73
     0
 74
     0
 75
     0
 76
     0
 77
     1
 78
     8
170
     0
171
     3
172
     1
173
     0
174
     0
175
     0
176
     0
177
     0
178
     0
  0
ENDTAB
  0
ENDSEC
  0
SECTION
  2
BLOCKS
  0
BLOCK
  8
0
  2
$MODEL_SPACE
 70
     0
 10
0.0
 20
0.0
 30
0.0
  3
$MODEL_SPACE
  1

  0
ENDBLK
  5
6FC
  8
0
  0
BLOCK
 67
     1
  8
0
  2
$PAPER_SPACE
 70
     0
 10
0.0
 20
0.0
 30
0.0
  3
$PAPER_SPACE
  1

  0
ENDBLK
  5
6F8
 67
     1
  8
0
  0
ENDSEC
  0
SECTION
  2
ENTITIES
  0
POLYLINE
  5
242
  8
_____$_YB01
 66
     1
 10
0.0
 20
0.0
 30
0.0
 70
     1
  0
VERTEX
  5
131A
  8
_____$_YB01
 10
1021.032441904648
 20
2068.053076140448
 30
0.0
  0
VERTEX
  5
131B
  8
_____$_YB01
 10
3768.4746090843182
 20
2068.053076140448
 30
0.0
  0
VERTEX
  5
131C
  8
_____$_YB01
 10
3768.4746090843182
 20
788.81908623344134
 30
0.0
  0
VERTEX
  5
131D
  8
_____$_YB01
 10
1021.032441904648
 20
788.81908623344134
 30
0.0
  0
SEQEND
  5
131E
  8
_____$_YB01
  0
TEXT
  5
12BA
  8
YWQB1A___PJ
 10
3117.738967935557
 20
1973.593471035417
 30
0.0
 40
52.5
  1
数量/单块
  7
图签-黑体
 72
     1
 11
3287.6266083849951
 21
1999.8434710354179
 31
0.0
 73
     2
  0
TEXT
  5
12BB
  8
YWQB1A___PJ
 10
1875.7953476841669
 20
1973.2985270488989
 30
0.0
 40
52.5
  1
配件名称
  7
图签-黑体
 72
     1
 11
2026.8065836392241
 21
1999.5485270488989
 31
0.0
 73
     2
  0
LINE
  5
12BC
  8
YWQB1A___PJ
 10
1170.3153060923689
 20
1915.820074131477
 30
-0.0000000000000272
 11
3571.098903279159
 21
1915.820074448186
 31
-0.0000000000000272
  0
TEXT
  5
12BD
  8
YWQB1A___PJ
 10
1284.65843505155
 20
1973.593470791149
 30
0.0
 40
52.5
  1
配件编号
  7
图签-黑体
 72
     1
 11
1435.669671006606
 21
1999.843470791149
 31
0.0
 73
     2
  0
TEXT
  5
12BE
  8
YWQB1A___PJ
 10
2602.866120503797
 20
1972.8561114045131
 30
0.0
 40
52.5
  1
规格
  7
图签-黑体
 72
     1
 11
2678.371738481324
 21
1999.1061114045131
 31
0.0
 73
     2
  0
LINE
  5
12BF
  8
YWQB1A___PJ
 10
1170.3153039570791
 20
1575.811628187626
 30
-0.0000000000000556
 11
3571.098901144102
 21
1575.8116285043629
 31
-0.0000000000000556
  0
LINE
  5
12C0
  8
YWQB1A___PJ
 10
1170.31530606245
 20
1802.4839254835081
 30
-0.0000000000000367
 11
3571.0989032492398
 21
1802.4839258002451
 31
-0.0000000000000367
  0
LINE
  5
12C1
  8
YWQB1A___PJ
 10
1170.312698251789
 20
1689.1477768355669
 30
-0.0000000000000462
 11
3571.0962954388119
 21
1689.1477771523039
 31
-0.0000000000000462
  0
TEXT
  5
12C2
  8
YWQB1A___PJ
 62
     2
 10
3268.8557083289061
 20
927.23364423669216
 30
-0.0000000000000186
 40
52.5
  1
2
  7
图签-样式_2
 72
     1
 11
3287.6266580495758
 21
953.48364423669216
 31
-0.0000000000000186
 73
     2
  0
TEXT
  5
12C3
  8
YWQB1A___PJ
 62
     2
 10
1379.3568730539489
 20
931.02531065902247
 30
-0.0000000000000186
 40
52.5
  1
DJ2
  7
图签-样式_2
 72
     1
 11
1435.6697222159601
 21
957.27531065902247
 31
-0.0000000000000186
 73
     2
  0
TEXT
  5
12C4
  8
YWQB1A___PJ
 62
     2
 10
1876.639059012427
 20
926.21281073702085
 30
-0.0000000000000186
 40
52.5
  1
预埋吊环
  7
图签-样式_2
 72
     1
 11
2026.8066567777901
 21
952.46281073702085
 31
-0.0000000000000186
 73
     2
  0
TEXT
  5
12C5
  8
YWQB1A___PJ
 62
     2
 10
2640.8299121787832
 20
926.94197748965053
 30
-0.0000000000000186
 40
52.5
  1
20
  7
图签-样式_2
 72
     1
 11
2678.3718116201239
 21
953.19197748965064
 31
-0.0000000000000186
 73
     2
  0
CIRCLE
  5
12C6
  8
YWQB1A___PJ
 62
     2
 10
2622.565693378147
 20
954.98840266867592
 30
-0.0000000000000846
 40
15.373503556348229
  0
POLYLINE
  5
12C7
  8
YWQB1A___PJ
 62
     2
 66
     1
 10
0.0
 20
0.0
 30
0.0
  0
VERTEX
  5
137A
  8
YWQB1A___PJ
 62
     2
 10
2622.242893391453
 20
981.81562699688766
 30
0.0
  0
VERTEX
  5
137B
  8
YWQB1A___PJ
 62
     2
 10
2622.242893391453
 20
926.05800385208374
 30
0.0
  0
SEQEND
  5
137C
  8
YWQB1A___PJ
 62
     2
  0
TEXT
  5
12C8
  8
YWQB1A___PJ
 62
     2
 10
3268.8556591727101
 20
1833.92283342016
 30
0.0
 40
52.5
  1
7
  7
图签-样式_2
 72
     1
 11
3287.6266088933812
 21
1860.17283342016
 31
0.0
 73
     2
  0
TEXT
  5
12C9
  8
YWQB1A___PJ
 62
     2
 10
1398.127773618482
 20
1833.9228331758329
 30
0.0
 40
52.5
  1
M3
  7
图签-样式_2
 72
     1
 11
1435.669673059823
 21
1860.1728331758329
 31
0.0
 73
     2
  0
TEXT
  5
12CA
  8
YWQB1A___PJ
 62
     2
 10
1876.638991059813
 20
1832.9019999204879
 30
0.0
 40
52.5
  1
预埋螺母
  7
图签-样式_2
 72
     1
 11
2026.806588825177
 21
1859.1519999204879
 31
0.0
 73
     2
  0
TEXT
  5
12CB
  8
YWQB1A___PJ
 62
     2
 10
2622.0588945053828
 20
1833.6311666731181
 30
0.0
 40
52.5
  1
M20
  7
图签-样式_2
 72
     1
 11
2678.3717436673951
 21
1859.8811666731181
 31
0.0
 73
     2
  0
TEXT
  5
12CC
  8
YWQB1A___PJ
 62
     2
 10
3250.0847115070028
 20
1606.9588694575921
 30
0.0
 40
52.5
  1
12
  7
图签-样式_2
 72
     1
 11
3287.626610948344
 21
1633.2088694575921
 31
0.0
 73
     2
  0
TEXT
  5
12CD
  8
YWQB1A___PJ
 62
     2
 10
1379.3568259527749
 20
1606.9588692132661
 30
0.0
 40
52.5
  1
CK3
  7
图签-样式_2
 72
     1
 11
1435.6696751147861
 21
1633.2088692132661
 31
0.0
 73
     2
  0
TEXT
  5
12CE
  8
YWQB1A___PJ
 62
     2
 10
1876.6389993802491
 20
1605.6463692912639
 30
0.0
 40
52.5
  1
预留穿孔
  7
图签-样式_2
 72
     1
 11
2026.8065971456131
 21
1631.8963692912639
 31
0.0
 73
     2
  0
TEXT
  5
12CF
  8
YWQB1A___PJ
 62
     2
 10
2640.82985255318
 20
1606.9588693673049
 30
0.0
 40
52.5
  1
20
 50
0.0000000151119603
  7
图签-样式_2
 72
     1
 11
2678.3717519875981
 21
1633.2088693772071
 31
0.0
 73
     2
  0
CIRCLE
  5
12D0
  8
YWQB1A___PJ
 62
     2
 10
2622.5656400927001
 20
1635.0215172912849
 30
-0.0000000000000282
 40
15.373503556348229
  0
POLYLINE
  5
12D1
  8
YWQB1A___PJ
 62
     2
 66
     1
 10
0.0
 20
0.0
 30
0.0
  0
VERTEX
  5
137D
  8
YWQB1A___PJ
 62
     2
 10
2622.2428400990211
 20
1661.8487416194091
 30
0.0
  0
VERTEX
  5
137E
  8
YWQB1A___PJ
 62
     2
 10
2622.2428401136899
 20
1606.0911184746051
 30
0.0
  0
SEQEND
  5
137F
  8
YWQB1A___PJ
 62
     2
  0
LINE
  5
12D2
  8
YWQB1A___PJ
 10
1170.3153139440001
 20
1349.139330891745
 30
-0.0000000000000744
 11
3571.0989111310232
 21
1349.139331208482
 31
-0.0000000000000744
  0
LINE
  5
12D3
  8
YWQB1A___PJ
 10
1170.3127082387109
 20
1462.475479539685
 30
-0.000000000000065
 11
3571.0963054255012
 21
1462.4754798564229
 31
-0.000000000000065
  0
LINE
  5
12D4
  8
YWQB1A___PJ
 10
1170.31533387279
 20
1235.803182243804
 30
-0.0000000000000838
 11
3571.098931059812
 21
1235.803182560541
 31
-0.0000000000000838
  0
LINE
  5
12D5
  8
YWQB1A___PJ
 10
1170.315329961235
 20
1122.467033595892
 30
-0.0000000000000931
 11
3571.0989271482581
 21
1122.4670339126289
 31
-0.0000000000000931
  0
LINE
  5
12D6
  8
YWQB1A___PJ
 10
1170.315329961235
 20
1009.130884947952
 30
-0.0000000000001025
 11
3571.0989271482581
 21
1009.130885264689
 31
-0.0000000000001025
  0
LINE
  5
12D7
  8
YWQB1A___PJ
 10
1170.315329961235
 20
895.79473630004031
 30
-0.0000000000001118
 11
3571.0989271482581
 21
895.79473661677719
 31
-0.0000000000001118
  0
LINE
  5
12D8
  8
YWQB1A___PJ
 10
1170.315325830936
 20
895.79473630004031
 30
-0.0000000000001118
 11
3571.0989230179589
 21
895.79473661677719
 31
-0.0000000000001118
  0
LINE
  5
12D9
  8
YWQB1A___PJ
 10
1170.315325830936
 20
782.4585876520996
 30
-0.0000000000001212
 11
3571.0989230179589
 21
782.45858796883647
 31
-0.0000000000001212
  0
TEXT
  5
12DA
  8
YWQB1A___PJ
 62
     2
 10
3250.0847104795221
 20
1720.58668477219
 30
0.0
 40
52.5
  1
16
  7
图签-样式_2
 72
     1
 11
3287.6266099208619
 21
1746.83668477219
 31
0.0
 73
     2
  0
TEXT
  5
12DB
  8
YWQB1A___PJ
 62
     2
 10
1398.1277746459641
 20
1720.5866845278631
 30
0.0
 40
52.5
  1
M4
  7
图签-样式_2
 72
     1
 11
1435.6696740873051
 21
1746.8366845278631
 31
0.0
 73
     2
  0
TEXT
  5
12DC
  8
YWQB1A___PJ
 62
     2
 10
1876.638995220032
 20
1719.4200179392051
 30
0.0
 40
52.5
  1
预埋木砖
  7
图签-样式_2
 72
     1
 11
2026.8065929853949
 21
1745.6700179392051
 31
0.0
 73
     2
  0
TEXT
  5
12DD
  8
YWQB1A___PJ
 62
     2
 10
2509.4332003415789
 20
1720.295018025148
 30
0.0
 40
52.5
  1
100x80x75
  7
图签-样式_2
 72
     1
 11
2678.3717478276121
 21
1746.545018025148
 31
0.0
 73
     2
  0
TEXT
  5
12DE
  8
YWQB1A___PJ
 62
     2
 10
1398.1252041342491
 20
1044.3614593069919
 30
0.0000000000000189
 40
52.5
  1
JG
  7
图签-样式_2
 72
     1
 11
1435.6671035755901
 21
1070.6114593069919
 31
0.0000000000000189
 73
     2
  0
TEXT
  5
12DF
  8
YWQB1A___PJ
 62
     2
 10
1764.0107514463009
 20
1038.8197927183039
 30
0.0000000000000189
 40
52.5
  1
灌/出浆管(PVC)
  7
图签-样式_2
 72
     1
 11
2026.804047535687
 21
1065.0697927183039
 31
0.0000000000000189
 73
     2
  0
TEXT
  5
12E0
  8
YWQB1A___PJ
 62
     2
 10
3250.0821399679821
 20
1040.569792884633
 30
0.0000000000000189
 40
52.5
  1
40
  7
图签-样式_2
 72
     1
 11
3287.6240394093229
 21
1066.819792884633
 31
0.0000000000000189
 73
     2
  0
TEXT
  5
12E1
  8
YWQB1A___PJ
 62
     2
 10
2640.8273029366801
 20
1040.278126137591
 30
0.0000000000000189
 40
52.5
  1
20
  7
图签-样式_2
 72
     1
 11
2678.3692023780209
 21
1066.528126137591
 31
0.0000000000000189
 73
     2
  0
CIRCLE
  5
12E2
  8
YWQB1A___PJ
 62
     2
 10
2625.7952376147632
 20
1066.273773564722
 30
-0.0000000000000751
 40
15.373503556348229
  0
POLYLINE
  5
12E3
  8
YWQB1A___PJ
 62
     2
 66
     1
 10
0.0
 20
0.0
 30
0.0
  0
VERTEX
  5
1380
  8
YWQB1A___PJ
 62
     2
 10
2625.7952376147632
 20
1093.834079725229
 30
0.0
  0
VERTEX
  5
1381
  8
YWQB1A___PJ
 62
     2
 10
2625.7952376147632
 20
1038.0764565804541
 30
0.0
  0
SEQEND
  5
1382
  8
YWQB1A___PJ
 62
     2
  0
TEXT
  5
12E4
  8
YWQB1A___PJ
 62
     2
 10
3265.312254895995
 20
1385.8182001823709
 30
0.0000000000239895
 40
52.5
  1
1
  7
图签-样式_2
 72
     1
 11
3284.0832046166661
 21
1412.0682001823709
 31
0.0000000000239895
 73
     2
  0
TEXT
  5
12E5
  8
YWQB1A___PJ
 62
     2
 10
1890.7028551539611
 20
1385.8812123184889
 30
0.0000000000239895
 40
52.5
  1
预留销孔
  7
图签-样式_2
 72
     1
 11
2040.870452919324
 21
1412.1312123184889
 31
0.0000000000239895
 73
     2
  0
TEXT
  5
12E6
  8
YWQB1A___PJ
 62
     2
 10
1395.582837276783
 20
1388.358008572772
 30
0.0000000000239894
 40
52.5
  1
XK
  7
图签-样式_2
 72
     1
 11
1433.124736718124
 21
1414.608008572772
 31
0.0000000000239894
 73
     2
  0
TEXT
  5
12E7
  8
YWQB1A___PJ
 62
     2
 10
2640.312204285216
 20
1385.8731683799681
 30
-0.0000000000001026
 40
52.5
  1
50
  7
图签-样式_2
 72
     1
 11
2677.8541037265568
 21
1412.123168379969
 31
-0.0000000000001026
 73
     2
  0
CIRCLE
  5
12E8
  8
YWQB1A___PJ
 62
     2
 10
2625.7978205064319
 20
1411.0297822575069
 30
-0.0000000000000752
 40
15.373503556348229
  0
POLYLINE
  5
12E9
  8
YWQB1A___PJ
 62
     2
 66
     1
 10
0.0
 20
0.0
 30
0.0
  0
VERTEX
  5
1383
  8
YWQB1A___PJ
 62
     2
 10
2625.7978205064319
 20
1438.5900884180139
 30
0.0
  0
VERTEX
  5
1384
  8
YWQB1A___PJ
 62
     2
 10
2625.7978205064319
 20
1382.832465273239
 30
0.0
  0
SEQEND
  5
1385
  8
YWQB1A___PJ
 62
     2
  0
TEXT
  5
12EA
  8
YWQB1A___PJ
 62
     2
 10
3268.8530783509632
 20
1493.622720809652
 30
-0.0000000000000094
 40
52.5
  1
1
  7
图签-样式_2
 72
     1
 11
3287.6240280716338
 21
1519.8727208096509
 31
-0.0000000000000094
 73
     2
  0
TEXT
  5
12EB
  8
YWQB1A___PJ
 62
     2
 10
1379.3542430760649
 20
1493.6227205653249
 30
-0.0000000000000094
 40
52.5
  1
CK5
  7
图签-样式_2
 72
     1
 11
1435.6670922380761
 21
1519.8727205653249
 31
-0.0000000000000094
 73
     2
  0
TEXT
  5
12EC
  8
YWQB1A___PJ
 62
     2
 10
1876.6364165035391
 20
1492.310220643323
 30
-0.0000000000000094
 40
52.5
  1
预留穿孔
  7
图签-样式_2
 72
     1
 11
2026.8040142689019
 21
1518.560220643323
 31
-0.0000000000000094
 73
     2
  0
TEXT
  5
12ED
  8
YWQB1A___PJ
 62
     2
 10
2640.8272696764702
 20
1493.6227207193649
 30
-0.0000000000000094
 40
52.5
  1
75
 50
0.0000000151119603
  7
图签-样式_2
 72
     1
 11
2678.369169110887
 21
1519.872720729267
 31
-0.0000000000000094
 73
     2
  0
CIRCLE
  5
12EE
  8
YWQB1A___PJ
 62
     2
 10
2622.5630572159898
 20
1521.685368643344
 30
-0.0000000000000376
 40
15.373503556348229
  0
POLYLINE
  5
12EF
  8
YWQB1A___PJ
 62
     2
 66
     1
 10
0.0
 20
0.0
 30
0.0
  0
VERTEX
  5
1386
  8
YWQB1A___PJ
 62
     2
 10
2622.2402572223109
 20
1548.5125929714679
 30
0.0
  0
VERTEX
  5
1387
  8
YWQB1A___PJ
 62
     2
 10
2622.2402572369788
 20
1492.754969826665
 30
0.0
  0
SEQEND
  5
1388
  8
YWQB1A___PJ
 62
     2
  0
TEXT
  5
12F0
  8
YWQB1A___PJ
 62
     2
 10
1360.5833047432579
 20
1266.950423269501
 30
0.0000000000000189
 40
52.5
  1
CT14
  7
图签-样式_2
 72
     1
 11
1435.667103625939
 21
1293.2004232695019
 31
0.0000000000000189
 73
     2
  0
TEXT
  5
12F1
  8
YWQB1A___PJ
 62
     2
 10
1876.636443555142
 20
1265.7837566808139
 30
0.0000000000000189
 40
52.5
  1
预埋套筒
  7
图签-样式_2
 72
     1
 11
2026.8040413205049
 21
1292.0337566808139
 31
0.0000000000000189
 73
     2
  0
TEXT
  5
12F2
  8
YWQB1A___PJ
 62
     2
 10
3268.853089738885
 20
1266.9504235138279
 30
0.0000000000000189
 40
52.5
  1
8
  7
图签-样式_2
 72
     1
 11
3287.6240394595561
 21
1293.2004235138279
 31
0.0000000000000189
 73
     2
  0
TEXT
  5
12F3
  8
YWQB1A___PJ
 62
     2
 10
2396.8049503527832
 20
1267.0962567667859
 30
0.0000000000000189
 40
52.5
  1
用于 14钢筋连接
  7
图签-样式_2
 72
     1
 11
2678.3691961628392
 21
1293.3462567667871
 31
0.0000000000000189
 73
     2
  0
CIRCLE
  5
12F4
  8
YWQB1A___PJ
 62
     2
 10
2567.0727175947868
 20
1293.1876623783589
 30
-0.0000000000000657
 40
15.373503556348229
  0
POLYLINE
  5
12F5
  8
YWQB1A___PJ
 62
     2
 66
     1
 10
0.0
 20
0.0
 30
0.0
  0
VERTEX
  5
1389
  8
YWQB1A___PJ
 62
     2
 10
2567.0727175947868
 20
1320.747968538866
 30
0.0
  0
VERTEX
  5
138A
  8
YWQB1A___PJ
 62
     2
 10
2567.0727175947868
 20
1264.990345394091
 30
0.0
  0
SEQEND
  5
138B
  8
YWQB1A___PJ
 62
     2
  0
TEXT
  5
12F6
  8
YWQB1A___PJ
 62
     2
 10
1360.583302638003
 20
1153.614274621561
 30
0.0000000000000095
 40
52.5
  1
CT16
  7
图签-样式_2
 72
     1
 11
1435.6671015206839
 21
1179.864274621561
 31
0.0000000000000095
 73
     2
  0
TEXT
  5
12F7
  8
YWQB1A___PJ
 62
     2
 10
1876.6364414498869
 20
1152.4476080328729
 30
0.0000000000000095
 40
52.5
  1
预埋套筒
  7
图签-样式_2
 72
     1
 11
2026.8040392152509
 21
1178.6976080328729
 31
0.0000000000000095
 73
     2
  0
TEXT
  5
12F8
  8
YWQB1A___PJ
 62
     2
 10
3250.0821379129602
 20
1153.614274865887
 30
0.0000000000000095
 40
52.5
  1
12
  7
图签-样式_2
 72
     1
 11
3287.624037354301
 21
1179.864274865887
 31
0.0000000000000095
 73
     2
  0
TEXT
  5
12F9
  8
YWQB1A___PJ
 62
     2
 10
2396.804948247529
 20
1153.7601081188459
 30
0.0000000000000095
 40
52.5
  1
用于 16钢筋连接
  7
图签-样式_2
 72
     1
 11
2678.369194057585
 21
1180.0101081188459
 31
0.0000000000000095
 73
     2
  0
CIRCLE
  5
12FA
  8
YWQB1A___PJ
 62
     2
 10
2567.0727154895321
 20
1179.851513730418
 30
-0.0000000000000751
 40
15.373503556348229
  0
POLYLINE
  5
12FB
  8
YWQB1A___PJ
 62
     2
 66
     1
 10
0.0
 20
0.0
 30
0.0
  0
VERTEX
  5
138C
  8
YWQB1A___PJ
 62
     2
 10
2567.0727154895321
 20
1207.411819890925
 30
0.0
  0
VERTEX
  5
138D
  8
YWQB1A___PJ
 62
     2
 10
2567.0727154895321
 20
1151.654196746151
 30
0.0
  0
SEQEND
  5
138E
  8
YWQB1A___PJ
 62
     2
  0
ENDSEC
  0
EOF
